# xmcd CD database file
# Copyright (C) 1997 Ti Kan
# 
# Track frame offsets:
#     150
#     15412
#     29512
#     45560
#     60440
#     81762
#     99930
#     111520
#     123440
#     141832
# 
# Disc length: 2139 seconds
# 
# Revision: 1
# Processed by: cddbd v1.4b41PL1 Copyright (c) Steve Scherf et al.
# Submitted via: DiscPlay 4.0.4
# 
DISCID=7b08590a
DTITLE=Joe King Carrasco - Bandido Rock
DYEAR=1900
DGENRE=
TTITLE0=Juarez and Zapata
TTITLE1=Pachuco Rock
TTITLE2=Bandido Rock
TTITLE3=Arriba Sandino
TTITLE4=Hey Gringo No Pasaran
TTITLE5=Banana
TTITLE6=Chicano Town
TTITLE7=Dame Te Nook Nook
TTITLE8=Kry Tuff
TTITLE9=Fuera Yanqui
EXTD=
EXTT0=
EXTT1=
EXTT2=
EXTT3=
EXTT4=
EXTT5=
EXTT6=
EXTT7=
EXTT8=
EXTT9=
PLAYORDER=
